# xmcd
#
# Track frame offsets: 
#        151
#        28811
#        47927
#        59083
#        86276
#        122790
#        150514
#        183996
#
# Disc length: 2726 seconds
#
# Revision: 0
# Processed by: cddbd v1.5.1PL0 Copyright (c) Steve Scherf et al.
# Submitted via: ExactAudioCopy v0.95a5
#
DISCID=670aa408
DTITLE=Roy Buchanan - Live In Shiba - February 15, 1977 - Disc 2
DYEAR=1977
DGENRE=Blues
TTITLE0=Soul Dressing
TTITLE1=Lonely Days, Lonely Nights
TTITLE2=She Can't Say No
TTITLE3=Sunshine Of Your Love
TTITLE4=Monor Blues
TTITLE5=Baby Can't I Change My Mind?
TTITLE6=The Messiah Will Come Again
TTITLE7=I'm Evil
EXTD=
EXTT0=
EXTT1=
EXTT2=
EXTT3=
EXTT4=
EXTT5=
EXTT6=
EXTT7=
PLAYORDER=
